<?xml version="1.0" encoding="iso-8859-1"?>
<!-- Generator: Adobe Illustrator 19.0.0, SVG Export Plug-In . SVG Version: 6.00 Build 0)  -->
<svg version="1.1" id="Layer_1" xmlns="http://www.w3.org/2000/svg" xmlns:xlink="http://www.w3.org/1999/xlink" x="0px" y="0px"
	 viewBox="0 0 512 512" style="enable-background:new 0 0 512 512;" xml:space="preserve">
<g>
	<g>
		<path d="M407.273,23.273h-11.636c-6.435,0-11.636,5.213-11.636,11.636c0,6.423,5.201,11.636,11.636,11.636h11.636
			c6.423,0,11.636,5.225,11.636,11.636V384c0,6.412-5.213,11.636-11.636,11.636H104.727c-6.423,0-11.636-5.225-11.636-11.636V58.182
			c0-6.412,5.213-11.636,11.636-11.636h46.545v14.871c-6.924,4.038-11.636,11.462-11.636,20.038
			c0,12.835,10.438,23.273,23.273,23.273s23.273-10.438,23.273-23.273c0-8.576-4.713-16-11.636-20.038v-49.78
			C174.545,5.213,169.344,0,162.909,0c-6.435,0-11.636,5.213-11.636,11.636v11.636h-46.545c-19.247,0-34.909,15.663-34.909,34.909
			V384v93.091c0,19.247,15.663,34.909,34.909,34.909h302.545c19.247,0,34.909-15.663,34.909-34.909V384V58.182
			C442.182,38.935,426.519,23.273,407.273,23.273z M418.909,477.091c0,6.412-5.213,11.636-11.636,11.636H104.727
			c-6.423,0-11.636-5.225-11.636-11.636v-13.777c3.654,1.303,7.54,2.141,11.636,2.141h302.545c4.096,0,7.983-0.838,11.636-2.141
			V477.091z M418.909,430.545c0,6.412-5.213,11.636-11.636,11.636H104.727c-6.423,0-11.636-5.225-11.636-11.636v-13.777
			c3.654,1.303,7.54,2.141,11.636,2.141h302.545c4.096,0,7.983-0.838,11.636-2.141V430.545z"/>
	</g>
</g>
<g>
	<g>
		<path d="M360.727,61.417v-49.78C360.727,5.213,355.526,0,349.091,0c-6.435,0-11.636,5.213-11.636,11.636v11.636h-34.909
			c-6.435,0-11.636,5.213-11.636,11.636c0,6.423,5.201,11.636,11.636,11.636h34.909v14.871
			c-6.924,4.038-11.636,11.462-11.636,20.038c0,12.835,10.438,23.273,23.273,23.273c12.835,0,23.273-10.438,23.273-23.273
			C372.364,72.879,367.651,65.455,360.727,61.417z"/>
	</g>
</g>
<g>
	<g>
		<path d="M267.636,61.417v-49.78C267.636,5.213,262.435,0,256,0c-6.435,0-11.636,5.213-11.636,11.636v11.636h-34.909
			c-6.435,0-11.636,5.213-11.636,11.636c0,6.423,5.201,11.636,11.636,11.636h34.909v14.871
			c-6.924,4.038-11.636,11.462-11.636,20.038c0,12.835,10.438,23.273,23.273,23.273s23.273-10.438,23.273-23.273
			C279.273,72.879,274.56,65.455,267.636,61.417z"/>
	</g>
</g>
<g>
	<g>
		<path d="M256,162.909H139.636c-6.435,0-11.636,5.213-11.636,11.636s5.201,11.636,11.636,11.636H256
			c6.435,0,11.636-5.213,11.636-11.636S262.435,162.909,256,162.909z"/>
	</g>
</g>
<g>
	<g>
		<path d="M337.455,209.455H232.727c-6.435,0-11.636,5.213-11.636,11.636c0,6.423,5.201,11.636,11.636,11.636h104.727
			c6.435,0,11.636-5.213,11.636-11.636C349.091,214.668,343.889,209.455,337.455,209.455z"/>
	</g>
</g>
<g>
	<g>
		<path d="M302.545,302.545H139.636c-6.435,0-11.636,5.213-11.636,11.636s5.201,11.636,11.636,11.636h162.909
			c6.435,0,11.636-5.213,11.636-11.636S308.98,302.545,302.545,302.545z"/>
	</g>
</g>
<g>
	<g>
		<path d="M372.364,162.909h-69.818c-6.435,0-11.636,5.213-11.636,11.636s5.201,11.636,11.636,11.636h69.818
			c6.435,0,11.636-5.213,11.636-11.636S378.799,162.909,372.364,162.909z"/>
	</g>
</g>
<g>
	<g>
		<path d="M244.364,256H139.636c-6.435,0-11.636,5.213-11.636,11.636s5.201,11.636,11.636,11.636h104.727
			c6.435,0,11.636-5.213,11.636-11.636S250.799,256,244.364,256z"/>
	</g>
</g>
<g>
	<g>
		<path d="M186.182,209.455h-46.545c-6.435,0-11.636,5.213-11.636,11.636c0,6.423,5.201,11.636,11.636,11.636h46.545
			c6.435,0,11.636-5.213,11.636-11.636C197.818,214.668,192.617,209.455,186.182,209.455z"/>
	</g>
</g>
<g>
	<g>
		<path d="M372.364,256h-81.455c-6.435,0-11.636,5.213-11.636,11.636s5.201,11.636,11.636,11.636h81.455
			c6.435,0,11.636-5.213,11.636-11.636S378.799,256,372.364,256z"/>
	</g>
</g>
<g>
</g>
<g>
</g>
<g>
</g>
<g>
</g>
<g>
</g>
<g>
</g>
<g>
</g>
<g>
</g>
<g>
</g>
<g>
</g>
<g>
</g>
<g>
</g>
<g>
</g>
<g>
</g>
<g>
</g>
</svg>
